<svg width="20" height="20" viewBox="0 0 20 20" fill="none" xmlns="http://www.w3.org/2000/svg">
<path fill-rule="evenodd" clip-rule="evenodd" d="M14.8091 3.02852C15.0828 3.02835 15.3454 3.13701 15.5389 3.33056L16.6686 4.46025C16.8621 4.6538 16.9708 4.91637 16.9706 5.19009C16.9705 5.46381 16.8615 5.72624 16.6677 5.91955L3.8802 18.6756C3.78438 18.7712 3.67069 18.847 3.54561 18.8987L1.67436 19.6717C1.28919 19.8308 0.846113 19.7424 0.551435 19.4477C0.256758 19.153 0.168401 18.71 0.327506 18.3248L1.10047 16.4536C1.15214 16.3285 1.22793 16.2148 1.32351 16.119L14.0796 3.33146C14.2729 3.13767 14.5353 3.02869 14.8091 3.02852Z" fill="#E1E1E6"/>
<path fill-rule="evenodd" clip-rule="evenodd" d="M17.2185 0.387368C17.4375 0.296638 17.6722 0.249939 17.9093 0.249939C18.1464 0.249939 18.3811 0.296638 18.6002 0.387368C18.8192 0.47809 19.0182 0.611059 19.1858 0.778688L19.1858 0.77873L19.2212 0.814115C19.5595 1.15261 19.7495 1.61156 19.7495 2.09008C19.7495 2.5686 19.5595 3.02755 19.2212 3.36604L18.6683 3.91897C18.2656 4.3217 17.6126 4.3217 17.2099 3.91897L16.0802 2.78928C15.8867 2.59583 15.7781 2.33344 15.7781 2.05986C15.7782 1.78628 15.887 1.52394 16.0805 1.33057L16.6328 0.77873C16.6329 0.778656 16.6329 0.778582 16.633 0.778508L16.6332 0.778379C16.8007 0.610899 16.9996 0.478036 17.2185 0.387368Z" fill="#E1E1E6"/>
</svg>
