<svg width="18" height="22" viewBox="0 0 18 22" fill="none" xmlns="http://www.w3.org/2000/svg">
<path d="M17.25 3.5H12.75V2.375C12.75 1.87772 12.5525 1.40081 12.2008 1.04917C11.8492 0.697544 11.3723 0.5 10.875 0.5H7.125C6.62772 0.5 6.15081 0.697544 5.79917 1.04917C5.44754 1.40081 5.25 1.87772 5.25 2.375V3.5H0.75C0.551088 3.5 0.360322 3.57902 0.21967 3.71967C0.0790178 3.86032 0 4.05109 0 4.25C0 4.44891 0.0790178 4.63968 0.21967 4.78033C0.360322 4.92098 0.551088 5 0.75 5H1.54688L2.4375 19.2931C2.50406 20.5517 3.46875 21.5 4.6875 21.5H13.3125C14.5373 21.5 15.4828 20.5728 15.5625 19.2969L16.4531 5H17.25C17.4489 5 17.6397 4.92098 17.7803 4.78033C17.921 4.63968 18 4.44891 18 4.25C18 4.05109 17.921 3.86032 17.7803 3.71967C17.6397 3.57902 17.4489 3.5 17.25 3.5ZM6.02672 18.5H6C5.80563 18.5001 5.61881 18.4248 5.4789 18.2899C5.33899 18.1549 5.25692 17.971 5.25 17.7767L4.875 7.27672C4.86791 7.07781 4.94014 6.88423 5.07578 6.73856C5.21142 6.5929 5.39937 6.50709 5.59828 6.5C5.79719 6.49291 5.99077 6.56514 6.13644 6.70078C6.2821 6.83642 6.36791 7.02437 6.375 7.22328L6.75 17.7233C6.75357 17.8218 6.73769 17.92 6.70326 18.0124C6.66884 18.1048 6.61654 18.1894 6.54937 18.2616C6.48219 18.3337 6.40146 18.3919 6.31178 18.4328C6.2221 18.4737 6.12523 18.4966 6.02672 18.5ZM9.75 17.75C9.75 17.9489 9.67098 18.1397 9.53033 18.2803C9.38968 18.421 9.19891 18.5 9 18.5C8.80109 18.5 8.61032 18.421 8.46967 18.2803C8.32902 18.1397 8.25 17.9489 8.25 17.75V7.25C8.25 7.05109 8.32902 6.86032 8.46967 6.71967C8.61032 6.57902 8.80109 6.5 9 6.5C9.19891 6.5 9.38968 6.57902 9.53033 6.71967C9.67098 6.86032 9.75 7.05109 9.75 7.25V17.75ZM11.25 3.5H6.75V2.375C6.74943 2.3256 6.75875 2.27658 6.77739 2.23083C6.79604 2.18507 6.82364 2.14351 6.85857 2.10858C6.89351 2.07364 6.93507 2.04604 6.98083 2.02739C7.02658 2.00875 7.0756 1.99943 7.125 2H10.875C10.9244 1.99943 10.9734 2.00875 11.0192 2.02739C11.0649 2.04604 11.1065 2.07364 11.1414 2.10858C11.1764 2.14351 11.204 2.18507 11.2226 2.23083C11.2413 2.27658 11.2506 2.3256 11.25 2.375V3.5ZM12.75 17.7767C12.7431 17.971 12.661 18.1549 12.5211 18.2899C12.3812 18.4248 12.1944 18.5001 12 18.5H11.9728C11.8743 18.4965 11.7775 18.4736 11.6879 18.4327C11.5983 18.3917 11.5176 18.3335 11.4505 18.2614C11.3833 18.1893 11.3311 18.1046 11.2967 18.0123C11.2623 17.92 11.2464 17.8217 11.25 17.7233L11.625 7.22328C11.6285 7.12479 11.6514 7.02795 11.6923 6.9383C11.7332 6.84865 11.7914 6.76794 11.8636 6.70078C11.9357 6.63361 12.0203 6.58132 12.1127 6.54687C12.205 6.51242 12.3032 6.49649 12.4017 6.5C12.5002 6.50351 12.597 6.52638 12.6867 6.56732C12.7763 6.60825 12.8571 6.66644 12.9242 6.73856C12.9914 6.81069 13.0437 6.89534 13.0781 6.98767C13.1126 7.08001 13.1285 7.17823 13.125 7.27672L12.75 17.7767Z" fill="#E1E1E6"/>
</svg>
