<svg width="16" height="22" viewBox="0 0 16 22" fill="none" xmlns="http://www.w3.org/2000/svg">
<path fill-rule="evenodd" clip-rule="evenodd" d="M0.5 7.67188C0.5 3.67875 3.89479 0.5 8 0.5C12.1052 0.5 15.5 3.67875 15.5 7.67188C15.5 9.92303 14.2829 12.7082 12.9495 15.1155C11.5963 17.559 10.0377 19.7603 9.20195 20.8891C9.06404 21.0776 8.88371 21.231 8.67551 21.337C8.46625 21.4435 8.23479 21.499 8 21.499C7.76521 21.499 7.53375 21.4435 7.3245 21.337C7.11627 21.231 6.93592 21.0776 6.79801 20.889C5.96224 19.7598 4.40373 17.5577 3.05043 15.1139C1.71719 12.7064 0.5 9.92143 0.5 7.67188ZM8 2C4.65209 2 2 4.57656 2 7.67188C2 9.50045 3.03281 11.9859 4.36265 14.3872C5.66887 16.746 7.18184 18.886 8 19.9917C8.81813 18.8865 10.3311 16.7473 11.6374 14.3888C12.9671 11.9878 14 9.50213 14 7.67188C14 4.57656 11.3479 2 8 2Z" fill="#E45858"/>
<path fill-rule="evenodd" clip-rule="evenodd" d="M8 6.5C7.17157 6.5 6.5 7.17157 6.5 8C6.5 8.82843 7.17157 9.5 8 9.5C8.82843 9.5 9.5 8.82843 9.5 8C9.5 7.17157 8.82843 6.5 8 6.5ZM5 8C5 6.34315 6.34315 5 8 5C9.65685 5 11 6.34315 11 8C11 9.65685 9.65685 11 8 11C6.34315 11 5 9.65685 5 8Z" fill="#E45858"/>
</svg>
