<svg width="20" height="20" viewBox="0 0 20 20" fill="none" xmlns="http://www.w3.org/2000/svg">
<path fill-rule="evenodd" clip-rule="evenodd" d="M3.85584 1.61739C5.19011 0.725854 6.75879 0.25 8.36351 0.25H8.36355C10.5154 0.250137 12.579 1.105 14.1005 2.62655C15.6221 4.14811 16.477 6.21174 16.4771 8.36355V8.36359C16.4771 9.96831 16.0012 11.537 15.1097 12.8713C14.9532 13.1054 14.7852 13.3305 14.6065 13.5459L19.5302 18.4697C19.8231 18.7626 19.8231 19.2374 19.5302 19.5303C19.2373 19.8232 18.7625 19.8232 18.4696 19.5303L13.5458 14.6065C12.9234 15.1232 12.2239 15.5467 11.4684 15.8596C9.98588 16.4737 8.35451 16.6344 6.78062 16.3213C5.20674 16.0082 3.76104 15.2355 2.62633 14.1008C1.49162 12.9661 0.718877 11.5204 0.405813 9.94648C0.0927477 8.37259 0.253424 6.74122 0.867523 5.25866C1.48162 3.77609 2.52156 2.50892 3.85584 1.61739ZM8.36346 1.75C7.05543 1.75001 5.77678 2.13789 4.68919 2.86459C3.60159 3.5913 2.75391 4.6242 2.25334 5.83268C1.75277 7.04116 1.6218 8.37093 1.87699 9.65384C2.13218 10.9368 2.76206 12.1152 3.68699 13.0401C4.61192 13.965 5.79035 14.5949 7.07326 14.8501C8.35617 15.1053 9.68594 14.9743 10.8944 14.4738C12.1029 13.9732 13.1358 13.1255 13.8625 12.0379C14.5892 10.9503 14.9771 9.67167 14.9771 8.36364M8.36351 1.75C10.1175 1.75012 11.7996 2.44695 13.0399 3.68721C14.2801 4.92748 14.977 6.6096 14.9771 8.36359" fill="#E45858"/>
</svg>
