<svg width="32" height="16" viewBox="0 0 32 16" fill="none" xmlns="http://www.w3.org/2000/svg">
<path d="M0.997759 12.7947C0.85574 12.5648 0.662695 12.1968 0.546627 11.9262C-0.139598 10.333 -0.172448 8.68425 0.407126 7.10157C1.0443 5.3658 2.26148 4.03693 3.8342 3.36034C5.81141 2.50943 7.9982 2.67718 9.89318 3.80162C11.097 4.49222 11.9504 5.55852 12.5984 7.06609L12.6586 7.21271L12.7707 7.50397C12.7888 7.55095 12.8065 7.59661 12.8242 7.64041L0.997759 12.7947ZM4.94681 5.91789C3.54272 6.52134 2.81893 7.83849 2.96763 9.38285L8.91558 6.823C7.89276 5.62082 6.56148 5.22247 4.94681 5.91789ZM11.9562 13.0248L9.65721 11.4876L9.65393 11.491L9.53074 11.408C9.17597 11.984 8.62202 12.4504 7.92331 12.7534C6.59378 13.3316 5.3617 13.183 4.47696 12.407L4.3956 12.5307C4.39472 12.5293 4.39451 12.5282 4.39297 12.5282L2.88409 14.7857C3.25944 15.0465 3.66144 15.2668 4.08331 15.4427C5.7502 16.1351 7.45564 16.103 9.13578 15.3723C10.3511 14.8456 11.3046 14.0426 11.9562 13.0247V13.0248ZM16.9579 0.0356445V12.5863L18.9092 13.3771L17.8004 15.9642L15.6465 15.0673C15.163 14.8581 14.8341 14.5376 14.5848 14.176C14.3467 13.8075 14.1685 13.3016 14.1685 12.6205V0.0356445H16.9579ZM22.0129 9.38899C22.014 8.32028 22.4859 7.36184 23.2327 6.71044L21.2307 4.47821C19.873 5.67831 19.0178 7.43203 19.0162 9.38592C19.0141 11.3405 19.8679 13.0959 21.2243 14.2992L23.2239 12.0648C22.4808 11.4109 22.012 10.4553 22.0129 9.38899ZM25.5698 12.9513C25.1756 12.9502 24.796 12.885 24.442 12.7672L23.486 15.6098C24.1567 15.8346 24.8593 15.9495 25.5667 15.9499C28.7365 15.953 31.3833 13.7039 31.9966 10.714L29.058 10.114C28.7238 11.7345 27.2888 12.9524 25.5698 12.9513ZM25.5786 2.83486C24.8721 2.83347 24.1701 2.94647 23.4998 3.16948L24.4475 6.01469C24.8114 5.89424 25.1923 5.8328 25.5757 5.8327C27.2988 5.83434 28.7348 7.05941 29.0611 8.68458L32 8.08847C31.3951 5.09424 28.751 2.83683 25.5786 2.83486Z" fill="#F9FAFB"/>
</svg>
