<svg width="32" height="20" viewBox="0 0 32 20" fill="none" xmlns="http://www.w3.org/2000/svg">
<path d="M15.125 18.041L15.364 18.234C13.7438 19.3149 11.8387 19.8896 9.891 19.885C4.427 19.885 0 15.464 0 10C0 4.54104 4.427 0.115037 9.885 0.115037C11.912 0.115037 13.797 0.719037 15.36 1.76004C15.283 1.824 15.2096 1.8921 15.14 1.96404C12.803 3.98404 11.459 6.91704 11.459 10C11.459 13.083 12.798 16.016 15.126 18.041H15.125ZM22.115 0.115037C20.1674 0.109045 18.2618 0.681581 16.64 1.76004C16.719 1.82804 16.797 1.89604 16.86 1.96404C18.0144 2.96083 18.9406 4.19446 19.5758 5.58109C20.211 6.96773 20.5402 8.47485 20.541 10C20.541 13.079 19.202 16.011 16.874 18.041C16.7948 18.1059 16.7151 18.1702 16.635 18.234C18.2549 19.3156 20.1602 19.8904 22.108 19.885C27.572 19.885 31.999 15.464 31.999 10C31.999 4.54104 27.573 0.115037 22.115 0.115037ZM16 2.23504C14.8224 3.158 13.8704 4.33694 13.2162 5.68249C12.562 7.02803 12.2227 8.50487 12.224 10.001C12.2221 11.498 12.5611 12.9758 13.2153 14.3222C13.8696 15.6687 14.8219 16.8485 16 17.772C16.131 17.673 16.251 17.569 16.375 17.46C17.4439 16.5336 18.301 15.388 18.8878 14.1009C19.4746 12.8139 19.7776 11.4156 19.776 10.001C19.7772 8.50489 19.4378 7.02811 18.7836 5.68258C18.1294 4.33706 17.1775 3.1581 16 2.23504Z" fill="#F9FAFB"/>
</svg>
