<svg width="12" height="14" viewBox="0 0 12 14" fill="none" xmlns="http://www.w3.org/2000/svg">
<path d="M5.83337 4.16683C4.91671 4.16683 4.16671 4.91683 4.16671 5.8335C4.16671 6.75017 4.91671 7.50017 5.83337 7.50017C6.75004 7.50017 7.50004 6.75017 7.50004 5.8335C7.50004 4.91683 6.75004 4.16683 5.83337 4.16683ZM5.83337 0.000167847C8.55837 0.000167847 11.6667 2.05017 11.6667 5.9585C11.6667 8.44183 9.89171 11.0585 6.34171 13.7835C6.04171 14.0168 5.62504 14.0168 5.32504 13.7835C1.77504 11.0502 3.8147e-05 8.44183 3.8147e-05 5.9585C3.8147e-05 2.05017 3.10837 0.000167847 5.83337 0.000167847Z" fill="#9D99E4"/>
</svg>
